<?xml version="1.0" encoding="utf-8"?>
<!-- Generator: Adobe Illustrator 27.3.1, SVG Export Plug-In . SVG Version: 6.00 Build 0)  -->
<svg version="1.1" id="Layer_1" xmlns="http://www.w3.org/2000/svg" xmlns:xlink="http://www.w3.org/1999/xlink" x="0px" y="0px"
	 width="36px" height="36px" viewBox="0 0 36 36" style="enable-background:new 0 0 36 36;" xml:space="preserve">
<style type="text/css">
	.st0{fill:#FFFFFF;}
	.st1{fill:#214292;}
	.st2{fill:#808080;}
</style>
<g>
	<path class="st0" d="M18,32.6L4.7,25.1c-2.6-1.5-4.2-4.2-4.2-7.2V3.5h3v14.5c0,1.9,1,3.6,2.7,4.5L18,29.1l11.9-6.7
		c1.6-0.9,2.7-2.7,2.7-4.5V3.5h3v14.5c0,3-1.6,5.7-4.2,7.2L18,32.6z"/>
	<path class="st1" d="M23.1,22.8l-3.8,2.1V3.4h3.8V22.8z"/>
	<path class="st1" d="M29.5,17.9c0,0.8-0.4,1.5-1.1,1.9l-2.7,1.5V3.4h3.8V17.9z"/>
	<path class="st2" d="M6.5,3.4v14.5c0,0.8,0.4,1.5,1.1,1.9l9.1,5.1V3.4H6.5z M13.8,19.7l-2.1-1.5l-2.1,1.5l0.8-2.5l-2.1-1.5l2.6,0
		l0.8-2.5l0.8,2.5l2.6,0L13,17.2L13.8,19.7z M13,9.3l0.8,2.5l-2.1-1.5l-2.1,1.5l0.8-2.5L8.3,7.7l2.6,0l0.8-2.5l0.8,2.5l2.6,0L13,9.3
		z"/>
</g>
</svg>
