<?xml version="1.0" encoding="UTF-8"?><svg id="a" xmlns="http://www.w3.org/2000/svg" width="800" height="124.827" viewBox="0 0 800 124.827"><path d="m220.167,36.569c0,1.163-.375,2.088-1.124,2.775-.75.687-1.774,1.03-3.07,1.03h-41.752c-1.297,0-2.3-.343-3.008-1.03-.71-.687-1.064-1.612-1.064-2.775V3.804c0-1.162.354-2.087,1.064-2.774.708-.687,1.711-1.03,3.008-1.03h41.752c1.295,0,2.319.343,3.07,1.03.748.687,1.124,1.612,1.124,2.774v11.045h-11v-7.293h-28.018v25.261h28.018v-7.715h11v11.467Z" style="fill:#fff;"/><path d="m283.371,36.569c0,1.163-.365,2.088-1.096,2.775-.729.687-1.721,1.03-2.976,1.03h-42.543c-1.297,0-2.3-.343-3.008-1.03-.708-.687-1.062-1.612-1.062-2.775V3.804c0-1.162.354-2.087,1.062-2.774.708-.687,1.711-1.03,3.008-1.03h42.543c1.255,0,2.247.343,2.976,1.03.731.687,1.096,1.612,1.096,2.774v32.765Zm-11.002-29.013h-28.683v25.261h28.683V7.556Z" style="fill:#fff;"/><path d="m335.087,40.374l-28.077-27.744v27.744h-11.059V0h10.877l28.077,26.951V0h11.061v40.374h-10.879Z" style="fill:#fff;"/><path d="m369.485,7.792v8.696h26.436v7.187h-26.436v16.699h-11V0h43.999v7.792h-32.999Z" style="fill:#fff;"/><path d="m411.116,40.374V0h11v40.374h-11Z" style="fill:#fff;"/><path d="m484.954,26.106c0,4.827-1.439,8.411-4.316,10.754-2.877,2.343-7.091,3.515-12.641,3.515h-33.364V0h33.364c5.55,0,9.764,1.207,12.641,3.62,2.877,2.413,4.316,6.033,4.316,10.86v11.626Zm-11.002-11.256c0-2.465-.697-4.262-2.097-5.391-1.397-1.127-3.515-1.691-6.351-1.691h-19.871v24.838h19.871c2.836,0,4.954-.564,6.351-1.692,1.399-1.127,2.097-2.923,2.097-5.39v-10.675Z" style="fill:#fff;"/><path d="m496.257,40.374V0h45.093v7.794h-34.093v8.535h27.104v7.187h-27.104v9.09h34.579v7.768h-45.578Z" style="fill:#fff;"/><path d="m591.183,40.374l-28.077-27.744v27.744h-11.059V0h10.877l28.077,26.951V0h11.061v40.374h-10.879Z" style="fill:#fff;"/><path d="m641.442,7.768v32.606h-10.877V7.768h-19.691V0h50.259v7.768h-19.691Z" style="fill:#fff;"/><path d="m670.068,40.374V0h11v40.374h-11Z" style="fill:#fff;"/><path d="m734.303,40.374l-3.708-7.187h-26.072l-3.828,7.187h-11.364v-.106L711.756,0h11.606l22.426,40.268v.106h-11.485Zm-16.774-32.025l-9.238,17.651h18.538l-9.3-17.651Z" style="fill:#fff;"/><path d="m754.117,40.374V0h11v32.606h31.176v7.768h-42.176Z" style="fill:#fff;"/><path d="m201.376,68.278c0,2.86-.852,4.984-2.557,6.372-1.706,1.388-4.204,2.083-7.491,2.083h-19.772v-23.925h19.772c3.288,0,5.785.715,7.491,2.145,1.704,1.43,2.557,3.575,2.557,6.435v6.89Zm-6.518-6.671c0-1.461-.415-2.526-1.244-3.195-.827-.668-2.082-1.002-3.763-1.002h-11.776v14.719h11.776c1.681,0,2.936-.334,3.763-1.003.829-.668,1.244-1.732,1.244-3.194v-6.327Z" style="fill:#fff;"/><path d="m220.499,76.733v-23.925h26.723v4.618h-20.204v5.058h16.062v4.26h-16.062v5.386h20.492v4.603h-27.011Z" style="fill:#fff;"/><path d="m272.503,57.425v5.152h15.666v4.259h-15.666v9.896h-6.518v-23.925h26.074v4.618h-19.555Z" style="fill:#fff;"/><path d="m309.598,76.733v-23.925h26.723v4.618h-20.204v5.058h16.062v4.26h-16.062v5.386h20.492v4.603h-27.011Z" style="fill:#fff;"/><path d="m378.276,76.733l-16.639-16.441v16.441h-6.555v-23.925h6.446l16.639,15.971v-15.971h6.555v23.925h-6.446Z" style="fill:#fff;"/><path d="m432.582,74.481c0,.688-.22,1.236-.666,1.642s-1.051.609-1.819.609h-23.049c-.767,0-1.374-.205-1.819-.615-.445-.41-.666-.962-.666-1.657v-5.965h6.518v3.978h14.981v-3.409l-19.844-5.752c-.647-.166-1.085-.417-1.314-.75-.227-.334-.341-.772-.341-1.313v-6.191c0-.688.22-1.235.666-1.642.445-.406,1.051-.609,1.819-.609h23.121c.744,0,1.333.2,1.766.599.43.4.647.936.647,1.609v5.465h-6.518v-3.414h-14.981v2.939l19.844,5.691c.623.166,1.056.422,1.295.766.242.343.36.786.36,1.328v6.691Z" style="fill:#fff;"/><path d="m452.463,76.733v-23.925h26.723v4.618h-20.204v5.058h16.062v4.26h-16.062v5.386h20.492v4.603h-27.011Z" style="fill:#fff;"/><path d="m547.792,76.733l-2.198-4.259h-15.449l-2.268,4.259h-6.735v-.063l13.289-23.863h6.879l13.287,23.863v.063h-6.805Zm-9.94-18.978l-5.476,10.459h10.985l-5.509-10.459Z" style="fill:#fff;"/><path d="m601.595,74.478c0,.689-.223,1.237-.666,1.644-.445.407-1.051.611-1.819.611h-24.743c-.767,0-1.363-.204-1.783-.611-.42-.407-.63-.955-.63-1.644v-19.417c0-.689.22-1.237.666-1.644.445-.407,1.051-.611,1.819-.611h24.671c.767,0,1.374.204,1.819.611.443.407.666.955.666,1.644v5.574h-6.518v-3.35h-16.602v14.969h16.602v-4.635h-9.904v-4.165h16.422v11.024Z" style="fill:#fff;"/><path d="m621.439,76.733v-23.925h26.723v4.618h-20.204v5.058h16.062v4.26h-16.062v5.386h20.492v4.603h-27.011Z" style="fill:#fff;"/><path d="m690.117,76.733l-16.639-16.441v16.441h-6.555v-23.925h6.446l16.639,15.971v-15.971h6.555v23.925h-6.446Z" style="fill:#fff;"/><path d="m746.047,74.478c0,.689-.223,1.237-.666,1.644-.445.407-1.051.611-1.819.611h-24.743c-.767,0-1.363-.204-1.783-.611s-.63-.955-.63-1.644v-19.417c0-.689.21-1.237.63-1.644s1.015-.611,1.783-.611h24.743c.767,0,1.374.204,1.819.611.443.407.666.955.666,1.644v6.545h-6.518v-4.321h-16.602v14.969h16.602v-4.572h6.518v6.796Z" style="fill:#fff;"/><path d="m783.031,68.465v8.267h-6.518v-8.267l-13.037-15.47v-.188h6.987l9.291,11.65,9.327-11.65h6.987v.188l-13.037,15.47Z" style="fill:#fff;"/><rect x="170.486" y="88.69" width="626.075" height="4.371" style="fill:#214292;"/><path d="m185.378,120.421h-13.745c-.825,0-1.315-.55-1.315-1.414v-12.175c0-.864.491-1.414,1.315-1.414h13.745c.805,0,1.315.55,1.315,1.414v12.175c0,.864-.51,1.414-1.315,1.414Zm-2.238-12.194h-9.268v9.386h9.268v-9.386Z" style="fill:gray;"/><path d="m212.727,120.421h-13.431c-.864,0-1.375-.55-1.375-1.414v-13.588h3.554v12.115h9.052v-12.115h3.554v13.588c0,.864-.53,1.414-1.355,1.414Z" style="fill:gray;"/><path d="m237.366,120.421l-6.833-6.048v-1.787h6.597v-4.359h-8.286v12.194h-3.554v-15.002h14.04c.805,0,1.335.55,1.335,1.414v6.893c0,.844-.53,1.374-1.335,1.374h-3.77l6.126,5.184v.137h-4.32Z" style="fill:gray;"/><path d="m279.991,120.421h-12.566c-.825,0-1.355-.55-1.355-1.414v-3.731h3.554v2.494h8.169v-2.141l-10.82-3.613c-.707-.216-.903-.609-.903-1.296v-3.888c0-.864.53-1.414,1.355-1.414h12.606c.806,0,1.316.53,1.316,1.375v3.417h-3.554v-2.14h-8.169v1.846l10.82,3.574c.667.216.903.648.903,1.316v4.202c0,.864-.53,1.414-1.355,1.414Z" style="fill:gray;"/><path d="m305.181,120.421v-5.95h-9.053v5.95h-3.554v-15.002h3.554v5.989h9.053v-5.989h3.554v15.002h-3.554Z" style="fill:gray;"/><path d="m319.943,120.421v-15.002h3.554v15.002h-3.554Z" style="fill:gray;"/><path d="m334.708,120.421v-15.002h14.57v2.887h-11.016v3.161h8.757v2.69h-8.757v3.377h11.173v2.887h-14.727Z" style="fill:gray;"/><path d="m359.898,120.421v-15.002h3.554v12.115h10.073v2.887h-13.627Z" style="fill:gray;"/><path d="m394.238,120.421h-10.78v-15.002h10.78c3.574,0,5.478,1.807,5.478,5.38v4.32c0,3.554-1.904,5.302-5.478,5.302Zm1.924-9.484c0-1.826-.903-2.631-2.73-2.631h-6.421v9.229h6.421c1.826,0,2.73-.805,2.73-2.631v-3.966Z" style="fill:gray;"/><path d="m410.198,120.421v-2.906h2.788v2.906h-2.788Z" style="fill:gray;"/><path d="m447.64,115.237v5.184h-3.554v-5.184l-7.109-9.7v-.118h3.81l5.066,7.305,5.086-7.305h3.809v.118l-7.108,9.7Z" style="fill:gray;"/><path d="m479.722,120.421h-13.745c-.825,0-1.316-.55-1.316-1.414v-12.175c0-.864.491-1.414,1.316-1.414h13.745c.806,0,1.316.55,1.316,1.414v12.175c0,.864-.51,1.414-1.316,1.414Zm-2.238-12.194h-9.269v9.386h9.269v-9.386Z" style="fill:gray;"/><path d="m507.071,120.421h-13.431c-.864,0-1.374-.55-1.374-1.414v-13.588h3.554v12.115h9.053v-12.115h3.554v13.588c0,.864-.53,1.414-1.355,1.414Z" style="fill:gray;"/><path d="m531.712,120.421l-6.833-6.048v-1.787h6.597v-4.359h-8.286v12.194h-3.554v-15.002h14.04c.805,0,1.335.55,1.335,1.414v6.893c0,.844-.53,1.374-1.335,1.374h-3.77l6.127,5.184v.137h-4.32Z" style="fill:gray;"/><path d="m574.335,120.421h-12.567c-.824,0-1.354-.55-1.354-1.414v-3.731h3.554v2.494h8.169v-2.141l-10.82-3.613c-.707-.216-.903-.609-.903-1.296v-3.888c0-.864.53-1.414,1.354-1.414h12.606c.806,0,1.316.53,1.316,1.375v3.417h-3.554v-2.14h-8.169v1.846l10.82,3.574c.667.216.903.648.903,1.316v4.202c0,.864-.53,1.414-1.355,1.414Z" style="fill:gray;"/><path d="m599.86,120.421l-1.198-2.67h-8.424l-1.237,2.67h-3.671v-.039l7.245-14.962h3.75l7.246,14.962v.039h-3.711Zm-5.42-11.88l-2.985,6.558h5.989l-3.004-6.558Z" style="fill:gray;"/><path d="m616.979,108.306v3.22h8.542v2.69h-8.542v6.205h-3.554v-15.002h14.217v2.887h-10.663Z" style="fill:gray;"/><path d="m637.594,120.421v-15.002h14.57v2.887h-11.016v3.161h8.757v2.69h-8.757v3.377h11.173v2.887h-14.727Z" style="fill:gray;"/><path d="m677.588,120.421h-13.489c-.825,0-1.316-.55-1.316-1.414v-12.175c0-.864.53-1.414,1.354-1.414h13.45c.825,0,1.355.55,1.355,1.414v3.495h-3.554v-2.101h-9.053v9.386h9.053v-2.906h-5.4v-2.612h8.954v6.912c0,.864-.53,1.414-1.355,1.414Z" style="fill:gray;"/><path d="m704.957,120.421h-13.431c-.864,0-1.374-.55-1.374-1.414v-13.588h3.554v12.115h9.053v-12.115h3.554v13.588c0,.864-.53,1.414-1.355,1.414Z" style="fill:gray;"/><path d="m730.539,120.421l-1.198-2.67h-8.424l-1.237,2.67h-3.671v-.039l7.245-14.962h3.75l7.246,14.962v.039h-3.711Zm-5.42-11.88l-2.985,6.558h5.989l-3.004-6.558Z" style="fill:gray;"/><path d="m756.181,120.421l-6.833-6.048v-1.787h6.597v-4.359h-8.286v12.194h-3.554v-15.002h14.04c.805,0,1.335.55,1.335,1.414v6.893c0,.844-.53,1.374-1.335,1.374h-3.77l6.127,5.184v.137h-4.32Z" style="fill:gray;"/><path d="m781.252,120.421h-10.78v-15.002h10.78c3.574,0,5.478,1.807,5.478,5.38v4.32c0,3.554-1.904,5.302-5.478,5.302Zm1.924-9.484c0-1.826-.903-2.631-2.73-2.631h-6.421v9.229h6.421c1.826,0,2.73-.805,2.73-2.631v-3.966Z" style="fill:gray;"/><path d="m797.212,120.421v-2.906h2.788v2.906h-2.788Z" style="fill:gray;"/><path d="m75.072,124.827l-57.13-32.104C6.875,86.504,0,74.754,0,62.058V.07h12.84v61.988c0,8.061,4.365,15.522,11.392,19.47l50.84,28.57,50.838-28.569c7.028-3.949,11.393-11.41,11.393-19.471V.07h12.84v61.988c0,12.696-6.875,24.446-17.943,30.665l-57.129,32.104Z" style="fill:#fff;"/><path d="m96.897,83.105l-16.194,9.101V0h16.194v83.105Z" style="fill:#214292;"/><path d="m124.464,62.058c0,3.426-1.856,6.598-4.843,8.276l-11.461,6.441V0h16.304v62.058Z" style="fill:#214292;"/><path d="m25.681,0v62.058c0,3.426,1.856,6.598,4.843,8.276l38.918,21.871V0H25.681Zm31.458,69.702l-9.115-6.601-9.115,6.601,3.461-10.708-9.095-6.629,11.254-.017,3.494-10.698,3.494,10.698,11.254.017-9.094,6.629,3.461,10.708Zm-3.461-44.774l3.461,10.708-9.115-6.601-9.115,6.601,3.461-10.708-9.095-6.629,11.254-.017,3.494-10.698,3.494,10.698,11.254.017-9.094,6.629Z" style="fill:gray;"/></svg>