<?xml version="1.0" encoding="utf-8"?>
<!-- Generator: Adobe Illustrator 27.5.0, SVG Export Plug-In . SVG Version: 6.00 Build 0)  -->
<svg version="1.1" id="a" xmlns="http://www.w3.org/2000/svg" xmlns:xlink="http://www.w3.org/1999/xlink" x="0px" y="0px"
	 width="800px" height="124.8px" viewBox="0 0 800 124.8" style="enable-background:new 0 0 800 124.8;" xml:space="preserve">
<path d="M220.2,36.6c0,1.2-0.4,2.1-1.1,2.8c-0.8,0.7-1.8,1-3.1,1h-41.8c-1.3,0-2.3-0.3-3-1c-0.7-0.7-1.1-1.6-1.1-2.8V3.8
	c0-1.2,0.4-2.1,1.1-2.8c0.7-0.7,1.7-1,3-1H216c1.3,0,2.3,0.3,3.1,1c0.7,0.7,1.1,1.6,1.1,2.8v11h-11V7.6h-28v25.3h28v-7.7h11V36.6z"
	/>
<path d="M283.4,36.6c0,1.2-0.4,2.1-1.1,2.8c-0.7,0.7-1.7,1-3,1h-42.5c-1.3,0-2.3-0.3-3-1s-1.1-1.6-1.1-2.8V3.8
	c0-1.2,0.4-2.1,1.1-2.8s1.7-1,3-1h42.5c1.3,0,2.2,0.3,3,1c0.7,0.7,1.1,1.6,1.1,2.8V36.6z M272.4,7.6h-28.7v25.3h28.7
	C272.4,32.8,272.4,7.6,272.4,7.6z"/>
<path d="M335.1,40.4L307,12.6v27.7H296V0h10.9l28.1,27V0H346v40.4H335.1L335.1,40.4z"/>
<path d="M369.5,7.8v8.7h26.4v7.2h-26.4v16.7h-11V0h44v7.8H369.5z"/>
<path d="M411.1,40.4V0h11v40.4H411.1z"/>
<path d="M485,26.1c0,4.8-1.4,8.4-4.3,10.8s-7.1,3.5-12.6,3.5h-33.4V0H468c5.5,0,9.8,1.2,12.6,3.6c2.9,2.4,4.3,6,4.3,10.9
	C485,14.5,485,26.1,485,26.1z M474,14.9c0-2.5-0.7-4.3-2.1-5.4c-1.4-1.1-3.5-1.7-6.4-1.7h-19.9v24.8h19.9c2.8,0,5-0.6,6.4-1.7
	c1.4-1.1,2.1-2.9,2.1-5.4V14.9L474,14.9z"/>
<path d="M496.3,40.4V0h45.1v7.8h-34.1v8.5h27.1v7.2h-27.1v9.1h34.6v7.8L496.3,40.4L496.3,40.4z"/>
<path d="M591.2,40.4l-28.1-27.7v27.7H552V0h10.9L591,27V0h11.1v40.4H591.2L591.2,40.4z"/>
<path d="M641.4,7.8v32.6h-10.9V7.8h-19.7V0h50.3v7.8H641.4z"/>
<path d="M670.1,40.4V0h11v40.4H670.1z"/>
<path d="M734.3,40.4l-3.7-7.2h-26.1l-3.8,7.2h-11.4v-0.1L711.8,0h11.6l22.4,40.3v0.1H734.3L734.3,40.4z M717.5,8.3L708.3,26h18.5
	L717.5,8.3L717.5,8.3z"/>
<path d="M754.1,40.4V0h11v32.6h31.2v7.8H754.1z"/>
<path d="M201.4,68.3c0,2.9-0.9,5-2.6,6.4c-1.7,1.4-4.2,2.1-7.5,2.1h-19.8V52.8h19.8c3.3,0,5.8,0.7,7.5,2.1c1.7,1.4,2.6,3.6,2.6,6.4
	C201.4,61.4,201.4,68.3,201.4,68.3z M194.9,61.6c0-1.5-0.4-2.5-1.2-3.2c-0.8-0.7-2.1-1-3.8-1h-11.8v14.7h11.8c1.7,0,2.9-0.3,3.8-1
	c0.8-0.7,1.2-1.7,1.2-3.2V61.6L194.9,61.6z"/>
<path d="M220.5,76.7V52.8h26.7v4.6H227v5.1h16.1v4.3H227v5.4h20.5v4.6H220.5z"/>
<path d="M272.5,57.4v5.2h15.7v4.3h-15.7v9.9H266V52.8h26.1v4.6L272.5,57.4L272.5,57.4z"/>
<path d="M309.6,76.7V52.8h26.7v4.6h-20.2v5.1h16.1v4.3h-16.1v5.4h20.5v4.6H309.6z"/>
<path d="M378.3,76.7l-16.6-16.4v16.4h-6.6V52.8h6.4l16.6,16v-16h6.6v23.9H378.3z"/>
<path d="M432.6,74.5c0,0.7-0.2,1.2-0.7,1.6s-1.1,0.6-1.8,0.6h-23c-0.8,0-1.4-0.2-1.8-0.6c-0.4-0.4-0.7-1-0.7-1.7v-6h6.5v4h15v-3.4
	l-19.8-5.8c-0.6-0.2-1.1-0.4-1.3-0.8c-0.2-0.3-0.3-0.8-0.3-1.3v-6.2c0-0.7,0.2-1.2,0.7-1.6c0.4-0.4,1.1-0.6,1.8-0.6h23.1
	c0.7,0,1.3,0.2,1.8,0.6c0.4,0.4,0.6,0.9,0.6,1.6v5.5h-6.5v-3.4h-15V60l19.8,5.7c0.6,0.2,1.1,0.4,1.3,0.8c0.2,0.3,0.4,0.8,0.4,1.3
	V74.5L432.6,74.5z"/>
<path d="M452.5,76.7V52.8h26.7v4.6H459v5.1H475v4.3H459v5.4h20.5v4.6H452.5z"/>
<path d="M547.8,76.7l-2.2-4.3h-15.4l-2.3,4.3h-6.7v-0.1l13.3-23.9h6.9l13.3,23.9v0.1H547.8L547.8,76.7z M537.9,57.8l-5.5,10.5h11
	C543.4,68.2,537.9,57.8,537.9,57.8z"/>
<path d="M601.6,74.5c0,0.7-0.2,1.2-0.7,1.6c-0.4,0.4-1.1,0.6-1.8,0.6h-24.7c-0.8,0-1.4-0.2-1.8-0.6c-0.4-0.4-0.6-1-0.6-1.6V55.1
	c0-0.7,0.2-1.2,0.7-1.6c0.4-0.4,1.1-0.6,1.8-0.6h24.7c0.8,0,1.4,0.2,1.8,0.6c0.4,0.4,0.7,1,0.7,1.6v5.6h-6.5v-3.3h-16.6v15h16.6
	v-4.6h-9.9v-4.2h16.4V74.5z"/>
<path d="M621.4,76.7V52.8h26.7v4.6H628v5.1H644v4.3H628v5.4h20.5v4.6H621.4L621.4,76.7z"/>
<path d="M690.1,76.7l-16.6-16.4v16.4h-6.6V52.8h6.4l16.6,16v-16h6.6v23.9H690.1z"/>
<path d="M746,74.5c0,0.7-0.2,1.2-0.7,1.6c-0.4,0.4-1.1,0.6-1.8,0.6h-24.7c-0.8,0-1.4-0.2-1.8-0.6s-0.6-1-0.6-1.6V55.1
	c0-0.7,0.2-1.2,0.6-1.6s1-0.6,1.8-0.6h24.7c0.8,0,1.4,0.2,1.8,0.6c0.4,0.4,0.7,1,0.7,1.6v6.5h-6.5v-4.3h-16.6v15h16.6v-4.6h6.5V74.5
	z"/>
<path d="M783,68.5v8.3h-6.5v-8.3l-13-15.5v-0.2h7l9.3,11.6l9.3-11.7h7V53L783,68.5L783,68.5z"/>
<rect x="170.5" y="88.7" width="626.1" height="4.4"/>
<path d="M185.4,120.4h-13.7c-0.8,0-1.3-0.6-1.3-1.4v-12.2c0-0.9,0.5-1.4,1.3-1.4h13.7c0.8,0,1.3,0.6,1.3,1.4V119
	C186.7,119.9,186.2,120.4,185.4,120.4z M183.1,108.2h-9.3v9.4h9.3V108.2z"/>
<path d="M212.7,120.4h-13.4c-0.9,0-1.4-0.6-1.4-1.4v-13.6h3.6v12.1h9.1v-12.1h3.6V119C214.1,119.9,213.6,120.4,212.7,120.4
	L212.7,120.4z"/>
<path d="M237.4,120.4l-6.8-6v-1.8h6.6v-4.4h-8.3v12.2h-3.6v-15h14c0.8,0,1.3,0.6,1.3,1.4v6.9c0,0.8-0.5,1.4-1.3,1.4h-3.8l6.1,5.2
	v0.1H237.4L237.4,120.4z"/>
<path d="M280,120.4h-12.6c-0.8,0-1.4-0.6-1.4-1.4v-3.7h3.6v2.5h8.2v-2.1L267,112c-0.7-0.2-0.9-0.6-0.9-1.3v-3.9
	c0-0.9,0.5-1.4,1.4-1.4H280c0.8,0,1.3,0.5,1.3,1.4v3.4h-3.6v-2.1h-8.2v1.8l10.8,3.6c0.7,0.2,0.9,0.6,0.9,1.3v4.2
	C281.3,119.9,280.8,120.4,280,120.4L280,120.4z"/>
<path d="M305.2,120.4v-5.9h-9.1v5.9h-3.6v-15h3.6v6h9.1v-6h3.6v15H305.2z"/>
<path d="M319.9,120.4v-15h3.6v15H319.9z"/>
<path d="M334.7,120.4v-15h14.6v2.9h-11v3.2h8.8v2.7h-8.8v3.4h11.2v2.9L334.7,120.4L334.7,120.4z"/>
<path d="M359.9,120.4v-15h3.6v12.1h10.1v2.9H359.9L359.9,120.4z"/>
<path d="M394.2,120.4h-10.8v-15h10.8c3.6,0,5.5,1.8,5.5,5.4v4.3C399.7,118.7,397.8,120.4,394.2,120.4z M396.2,110.9
	c0-1.8-0.9-2.6-2.7-2.6H387v9.2h6.4c1.8,0,2.7-0.8,2.7-2.6V110.9L396.2,110.9z"/>
<path d="M410.2,120.4v-2.9h2.8v2.9H410.2z"/>
<path d="M447.6,115.2v5.2h-3.6v-5.2l-7.1-9.7v-0.1h3.8l5.1,7.3l5.1-7.3h3.8v0.1L447.6,115.2z"/>
<path d="M479.7,120.4H466c-0.8,0-1.3-0.6-1.3-1.4v-12.2c0-0.9,0.5-1.4,1.3-1.4h13.7c0.8,0,1.3,0.6,1.3,1.4V119
	C481,119.9,480.5,120.4,479.7,120.4z M477.5,108.2h-9.3v9.4h9.3V108.2z"/>
<path d="M507.1,120.4h-13.4c-0.9,0-1.4-0.6-1.4-1.4v-13.6h3.6v12.1h9.1v-12.1h3.6V119C508.4,119.9,507.9,120.4,507.1,120.4
	L507.1,120.4z"/>
<path d="M531.7,120.4l-6.8-6v-1.8h6.6v-4.4h-8.3v12.2h-3.6v-15h14c0.8,0,1.3,0.6,1.3,1.4v6.9c0,0.8-0.5,1.4-1.3,1.4h-3.8l6.1,5.2
	v0.1H531.7L531.7,120.4z"/>
<path d="M574.3,120.4h-12.6c-0.8,0-1.4-0.6-1.4-1.4v-3.7h3.6v2.5h8.2v-2.1l-10.8-3.6c-0.7-0.2-0.9-0.6-0.9-1.3v-3.9
	c0-0.9,0.5-1.4,1.4-1.4h12.6c0.8,0,1.3,0.5,1.3,1.4v3.4h-3.6v-2.1H564v1.8l10.8,3.6c0.7,0.2,0.9,0.6,0.9,1.3v4.2
	C575.7,119.9,575.2,120.4,574.3,120.4L574.3,120.4z"/>
<path d="M599.9,120.4l-1.2-2.7h-8.4l-1.2,2.7h-3.7v0l7.2-15h3.8l7.2,15v0H599.9L599.9,120.4z M594.4,108.5l-3,6.6h6L594.4,108.5z"/>
<path d="M617,108.3v3.2h8.5v2.7H617v6.2h-3.6v-15h14.2v2.9L617,108.3L617,108.3z"/>
<path d="M637.6,120.4v-15h14.6v2.9h-11v3.2h8.8v2.7h-8.8v3.4h11.2v2.9C652.3,120.4,637.6,120.4,637.6,120.4z"/>
<path d="M677.6,120.4h-13.5c-0.8,0-1.3-0.6-1.3-1.4v-12.2c0-0.9,0.5-1.4,1.4-1.4h13.5c0.8,0,1.4,0.6,1.4,1.4v3.5h-3.6v-2.1h-9.1v9.4
	h9.1v-2.9H670v-2.6h9v6.9C678.9,119.9,678.4,120.4,677.6,120.4L677.6,120.4z"/>
<path d="M705,120.4h-13.4c-0.9,0-1.4-0.6-1.4-1.4v-13.6h3.6v12.1h9.1v-12.1h3.6V119C706.3,119.9,705.8,120.4,705,120.4L705,120.4z"
	/>
<path d="M730.5,120.4l-1.2-2.7h-8.4l-1.2,2.7H716v0l7.2-15h3.8l7.2,15v0H730.5L730.5,120.4z M725.1,108.5l-3,6.6h6L725.1,108.5z"/>
<path d="M756.2,120.4l-6.8-6v-1.8h6.6v-4.4h-8.3v12.2h-3.6v-15h14c0.8,0,1.3,0.6,1.3,1.4v6.9c0,0.8-0.5,1.4-1.3,1.4h-3.8l6.1,5.2
	v0.1H756.2L756.2,120.4z"/>
<path d="M781.3,120.4h-10.8v-15h10.8c3.6,0,5.5,1.8,5.5,5.4v4.3C786.7,118.7,784.8,120.4,781.3,120.4z M783.2,110.9
	c0-1.8-0.9-2.6-2.7-2.6H774v9.2h6.4c1.8,0,2.7-0.8,2.7-2.6V110.9L783.2,110.9z"/>
<path d="M797.2,120.4v-2.9h2.8v2.9H797.2z"/>
<path d="M75.1,124.8L17.9,92.7C6.9,86.5,0,74.8,0,62.1v-62h12.8v62c0,8.1,4.4,15.5,11.4,19.5l50.8,28.6l50.8-28.6
	c7-3.9,11.4-11.4,11.4-19.5v-62h12.8v62c0,12.7-6.9,24.4-17.9,30.7L75.1,124.8L75.1,124.8z"/>
<path d="M96.9,83.1l-16.2,9.1V0h16.2V83.1z"/>
<path d="M124.5,62.1c0,3.4-1.9,6.6-4.8,8.3l-11.5,6.4V0h16.3V62.1z"/>
<path d="M25.7,0v62.1c0,3.4,1.9,6.6,4.8,8.3l38.9,21.9V0H25.7z M57.1,69.7L48,63.1l-9.1,6.6L42.4,59l-9.1-6.6l11.3,0L48,41.7
	l3.5,10.7l11.3,0L53.7,59L57.1,69.7L57.1,69.7z M53.7,24.9l3.5,10.7L48,29l-9.1,6.6l3.5-10.7l-9.1-6.6l11.3,0L48,7.6l3.5,10.7
	l11.3,0L53.7,24.9L53.7,24.9z"/>
</svg>
